<svg width="18" height="18" viewBox="0 0 18 18" fill="none" xmlns="http://www.w3.org/2000/svg">
<g clip-path="url(#clip0_415_939)">
<path d="M16.6215 4.24195C16.0489 4.49522 15.4417 4.66155 14.82 4.73545C15.4753 4.34352 15.9658 3.72671 16.2 2.99994C15.585 3.36594 14.9107 3.62244 14.208 3.76119C13.7359 3.25613 13.1103 2.92117 12.4282 2.80838C11.7462 2.6956 11.0459 2.81131 10.4364 3.13753C9.82694 3.46376 9.34228 3.98221 9.05783 4.61229C8.77337 5.24237 8.70505 5.94878 8.86349 6.6217C7.61632 6.55919 6.39624 6.23509 5.28246 5.67044C4.16867 5.1058 3.18609 4.31323 2.39849 3.3442C2.11971 3.82303 1.97321 4.36736 1.97399 4.92144C1.97399 6.00894 2.52749 6.9697 3.36899 7.5322C2.871 7.51652 2.38397 7.38203 1.94849 7.13995V7.17894C1.94864 7.90322 2.19927 8.60516 2.65788 9.16574C3.11649 9.72632 3.75485 10.1111 4.46474 10.2547C4.00245 10.38 3.51772 10.3984 3.04724 10.3087C3.24739 10.9321 3.6375 11.4773 4.16294 11.868C4.68838 12.2587 5.32284 12.4753 5.97749 12.4874C5.32685 12.9984 4.58188 13.3762 3.78515 13.5991C2.98843 13.822 2.15559 13.8856 1.33424 13.7864C2.76802 14.7085 4.43707 15.198 6.14174 15.1964C11.9115 15.1964 15.0667 10.4167 15.0667 6.27145C15.0667 6.13645 15.063 5.99994 15.057 5.86645C15.6711 5.42257 16.2012 4.87271 16.6222 4.24269L16.6215 4.24195Z" fill="white"/>
</g>
<defs>
<clipPath id="clip0_415_939">
<rect width="18" height="18" fill="white"/>
</clipPath>
</defs>
</svg>
